<svg width="1565" height="393" viewBox="0 0 1565 393" fill="none" xmlns="http://www.w3.org/2000/svg">
<path d="M188.634 220.681C197.096 215.394 204.76 208.946 211.401 201.554L235.343 215.38L257.143 177.62L233.249 163.824C236.287 154.549 238.074 144.711 238.409 134.513L265.592 129.72L258.018 86.782L230.84 91.575C227.084 82.266 222.045 73.61 215.934 65.831L233.7 44.661L200.3 16.637L182.549 37.789C173.879 33.143 164.49 29.67 154.595 27.586V0H110.995V27.586C101.099 29.67 91.71 33.143 83.039 37.789L65.289 16.637L31.889 44.662L49.653 65.832C43.543 73.611 38.504 82.268 34.748 91.576L7.57 86.783L0 129.721L27.179 134.514C27.514 144.713 29.302 154.549 32.34 163.827L8.444 177.622L30.245 215.381L54.188 201.559C60.827 208.948 68.491 215.397 76.954 220.684L67.503 246.647L108.475 261.557L117.913 235.629C122.777 236.317 127.744 236.682 132.795 236.682C137.846 236.682 142.814 236.319 147.678 235.629L157.115 261.559L198.085 246.645L188.634 220.681ZM132.793 186.68C102.091 186.68 77.113 161.703 77.113 131C77.113 100.299 102.091 75.32 132.793 75.32C163.495 75.32 188.473 100.299 188.473 131C188.473 161.703 163.496 186.68 132.793 186.68Z" fill="url(#paint0_linear)"/>
<path d="M376.041 253.422L357.246 259.502C353.662 253.273 349.232 247.633 344.131 242.723L354.635 225.959L328.188 209.389L317.69 226.139C311.086 223.701 304.088 222.166 296.864 221.668L294.139 202.109L263.227 206.418L265.952 225.977C259.143 228.43 252.827 231.824 247.14 235.973L232.468 222.729L211.556 245.897L226.24 259.156C222.678 265.274 219.963 271.908 218.22 278.882L198.476 278.168L197.347 309.356L217.09 310.072C218.336 317.27 220.576 324.063 223.648 330.343L208.07 342.486L227.255 367.101L242.864 354.937C248.302 359.519 254.375 363.333 260.895 366.248L256.757 385.592L287.279 392.112L291.412 372.798C294.928 372.808 298.484 372.569 302.064 372.071C305.646 371.573 309.134 370.821 312.511 369.856L321.767 387.307L349.341 372.684L340.075 355.213C345.555 350.627 350.346 345.295 354.327 339.401L372.665 346.837L384.392 317.913L366.089 310.491C367.323 303.616 367.618 296.464 366.853 289.198L385.652 283.114L376.041 253.422ZM297.129 336.621C275.358 339.652 255.18 324.412 252.149 302.644C249.112 280.875 264.356 260.695 286.126 257.665C307.894 254.629 328.067 269.872 331.106 291.643C334.135 313.41 318.896 333.584 297.129 336.621Z" fill="url(#paint1_linear)"/>
<path d="M418.146 145.262L418.878 120.633L403.292 120.17C402.315 114.742 400.569 109.367 398.007 104.199L410.247 94.529L394.976 75.199L382.738 84.865C378.373 81.238 373.545 78.281 368.42 76.049L371.584 60.758L347.461 55.762L344.291 71.043C338.732 71.051 333.135 71.84 327.65 73.455L320.259 59.728L298.564 71.412L305.955 85.141C301.592 88.827 297.848 93.075 294.779 97.707L280.283 91.937L271.172 114.83L285.68 120.609C284.725 126.117 284.539 131.767 285.166 137.408L270.357 142.306L278.089 165.701L292.898 160.805C295.798 165.791 299.324 170.201 303.324 174.006L295.133 187.274L316.096 200.22L324.305 186.928C329.59 188.824 335.133 189.979 340.758 190.342L343.01 205.795L367.393 202.234L365.147 186.8C367.749 185.843 370.317 184.691 372.831 183.337C375.347 181.985 377.722 180.47 379.954 178.827L391.602 189.198L407.989 170.8L396.333 160.417C399.128 155.517 401.208 150.253 402.536 144.798L418.146 145.262ZM359.436 158.459C344.155 166.686 325.032 160.951 316.809 145.676C308.579 130.399 314.315 111.272 329.596 103.049C344.869 94.82 363.991 100.559 372.221 115.836C380.443 131.114 374.711 150.231 359.436 158.459Z" fill="url(#paint2_linear)"/>
<path d="M569.681 161.341H521.414V292.615H488.947V161.341H441.329V135.042H569.681V161.341ZM622.962 135.042L663.437 249.326L703.696 135.042H746.336V292.615H713.761V249.542L717.007 175.193L674.476 292.615H652.182L609.758 175.301L613.005 249.542V292.615H580.538V135.042H622.962ZM825.698 237.746H764.768V212.53H825.698V237.746ZM948.457 235.149C948.457 253.186 944.345 267.652 936.12 278.546C927.967 289.368 916.928 294.779 903.004 294.779C891.171 294.779 881.612 290.667 874.325 282.442V337.636H843.048V175.518H872.052L873.134 186.989C880.71 177.899 890.594 173.353 902.787 173.353C917.217 173.353 928.436 178.692 936.445 189.37C944.453 200.048 948.457 214.767 948.457 233.525V235.149ZM917.181 232.876C917.181 221.981 915.233 213.576 911.337 207.66C907.513 201.744 901.921 198.786 894.562 198.786C884.75 198.786 878.004 202.537 874.325 210.041V257.984C878.148 265.704 884.967 269.564 894.779 269.564C909.713 269.564 917.181 257.334 917.181 232.876ZM1025.98 204.846C1021.72 204.269 1017.97 203.98 1014.72 203.98C1002.89 203.98 995.136 207.985 991.456 215.993V292.615H960.18V175.518H989.725L990.591 189.479C996.868 178.728 1005.56 173.353 1016.67 173.353C1020.14 173.353 1023.38 173.822 1026.41 174.76L1025.98 204.846ZM1024.61 232.984C1024.61 221.368 1026.84 211.015 1031.32 201.924C1035.79 192.833 1042.21 185.799 1050.58 180.821C1059.02 175.842 1068.8 173.353 1079.91 173.353C1095.71 173.353 1108.59 178.187 1118.54 187.855C1128.57 197.523 1134.17 210.654 1135.32 227.248L1135.54 235.257C1135.54 253.222 1130.52 267.652 1120.49 278.546C1110.46 289.368 1097.01 294.779 1080.13 294.779C1063.24 294.779 1049.75 289.368 1039.65 278.546C1029.62 267.724 1024.61 253.005 1024.61 234.391V232.984ZM1055.88 235.257C1055.88 246.368 1057.98 254.881 1062.16 260.797C1066.35 266.641 1072.33 269.564 1080.13 269.564C1087.7 269.564 1093.62 266.678 1097.87 260.906C1102.13 255.062 1104.26 245.754 1104.26 232.984C1104.26 222.09 1102.13 213.648 1097.87 207.66C1093.62 201.672 1087.63 198.677 1079.91 198.677C1072.26 198.677 1066.35 201.672 1062.16 207.66C1057.98 213.576 1055.88 222.775 1055.88 235.257ZM1180.16 175.518V299C1180.16 311.915 1176.73 321.943 1169.88 329.086C1163.02 336.301 1153.14 339.908 1140.22 339.908C1134.81 339.908 1129.65 339.295 1124.75 338.069V313.286C1128.5 313.935 1131.78 314.26 1134.6 314.26C1144.05 314.26 1148.77 309.245 1148.77 299.217V175.518H1180.16ZM1146.28 145.215C1146.28 140.526 1147.84 136.666 1150.94 133.635C1154.11 130.605 1158.41 129.09 1163.82 129.09C1169.23 129.09 1173.48 130.605 1176.59 133.635C1179.76 136.666 1181.35 140.526 1181.35 145.215C1181.35 149.977 1179.73 153.873 1176.48 156.903C1173.3 159.934 1169.08 161.449 1163.82 161.449C1158.55 161.449 1154.29 159.934 1151.05 156.903C1147.87 153.873 1146.28 149.977 1146.28 145.215ZM1250.75 294.779C1233.58 294.779 1219.59 289.513 1208.76 278.979C1198.01 268.445 1192.64 254.412 1192.64 236.88V233.85C1192.64 222.09 1194.91 211.592 1199.46 202.357C1204 193.05 1210.42 185.907 1218.72 180.929C1227.09 175.879 1236.61 173.353 1247.29 173.353C1263.31 173.353 1275.9 178.404 1285.06 188.505C1294.3 198.605 1298.91 212.927 1298.91 231.469V244.239H1224.35C1225.36 251.887 1228.39 258.02 1233.44 262.637C1238.56 267.255 1245.02 269.564 1252.81 269.564C1264.86 269.564 1274.27 265.199 1281.06 256.469L1296.42 273.676C1291.73 280.314 1285.39 285.508 1277.38 289.26C1269.37 292.94 1260.49 294.779 1250.75 294.779ZM1247.18 198.677C1240.98 198.677 1235.93 200.77 1232.03 204.954C1228.21 209.139 1225.75 215.127 1224.67 222.919H1268.18V220.43C1268.03 213.504 1266.16 208.165 1262.55 204.413C1258.94 200.589 1253.82 198.677 1247.18 198.677ZM1357.71 269.564C1363.49 269.564 1368.17 267.976 1371.78 264.802C1375.39 261.627 1377.27 257.406 1377.41 252.14H1406.74C1406.67 260.076 1404.5 267.363 1400.24 274.001C1395.99 280.566 1390.14 285.689 1382.71 289.368C1375.35 292.976 1367.2 294.779 1358.25 294.779C1341.52 294.779 1328.31 289.477 1318.64 278.871C1308.98 268.193 1304.14 253.474 1304.14 234.716V232.659C1304.14 214.622 1308.94 200.229 1318.54 189.479C1328.13 178.728 1341.3 173.353 1358.04 173.353C1372.68 173.353 1384.41 177.538 1393.21 185.907C1402.08 194.204 1406.59 205.279 1406.74 219.132H1377.41C1377.27 213.071 1375.39 208.165 1371.78 204.413C1368.17 200.589 1363.41 198.677 1357.5 198.677C1350.21 198.677 1344.69 201.347 1340.94 206.686C1337.26 211.953 1335.42 220.539 1335.42 232.443V235.69C1335.42 247.739 1337.26 256.396 1340.94 261.663C1344.62 266.93 1350.21 269.564 1357.71 269.564ZM1454.28 146.73V175.518H1474.3V198.461H1454.28V256.901C1454.28 261.23 1455.11 264.333 1456.77 266.209C1458.43 268.084 1461.61 269.022 1466.3 269.022C1469.76 269.022 1472.82 268.77 1475.49 268.265V291.966C1469.36 293.842 1463.05 294.779 1456.56 294.779C1434.62 294.779 1423.44 283.705 1423.01 261.555V198.461H1405.91V175.518H1423.01V146.73H1454.28Z" fill="url(#paint3_linear)"/>
<defs>
<linearGradient id="paint0_linear" x1="132.796" y1="0" x2="132.796" y2="261.559" gradientUnits="userSpaceOnUse">
<stop stop-color="white"/>
<stop offset="1" stop-color="white"/>
</linearGradient>
<linearGradient id="paint1_linear" x1="291.5" y1="202.109" x2="291.5" y2="392.112" gradientUnits="userSpaceOnUse">
<stop stop-color="white"/>
<stop offset="1" stop-color="white"/>
</linearGradient>
<linearGradient id="paint2_linear" x1="344.617" y1="55.762" x2="344.617" y2="205.795" gradientUnits="userSpaceOnUse">
<stop stop-color="white"/>
<stop offset="1" stop-color="white"/>
</linearGradient>
<linearGradient id="paint3_linear" x1="1224" y1="108.115" x2="637" y2="517.115" gradientUnits="userSpaceOnUse">
<stop stop-color="white"/>
<stop offset="1" stop-color="white"/>
</linearGradient>
</defs>
</svg>
