<svg width="1061" height="612" viewBox="0 0 1061 612" fill="none" xmlns="http://www.w3.org/2000/svg">
<g clip-path="url(#clip0)">
<path d="M983.112 593.841C979.73 599.25 976.081 604.819 972.164 610.546H80.6621C80.6621 610.546 -54.8721 470.159 25.4377 335.868C105.748 201.577 153.109 279.607 147.89 123.301C142.67 -33.004 430.076 -12.6044 510.685 32.7205C591.294 78.0453 626.466 114.553 792.891 96.5071C959.317 78.4611 991.101 229.001 947.807 305.727C905.123 381.371 1004.07 395.783 1019.41 469.307C1025.56 498.738 1018.28 537.676 983.112 593.841Z" fill="#EBF3FA"/>
<path d="M215.779 76.4026C215.779 76.4026 224.492 60.8234 245.324 62.5553C245.324 62.5553 275.568 36.5925 307.822 59.0955C307.822 59.0955 342.108 53.5202 367.497 63.9198C384.428 70.8556 390.019 78.1345 390.019 78.1345L215.779 76.4026Z" fill="#F8FCFF"/>
<path d="M350.74 289.821C350.74 289.821 363.628 266.773 394.454 269.333C394.454 269.333 439.212 230.92 486.937 264.214C486.937 264.214 537.666 255.962 575.235 271.355C600.301 281.618 608.56 292.385 608.56 292.385L350.74 289.821Z" fill="#F8FCFF"/>
<path d="M293.215 141.336C293.215 141.336 307.983 115.498 343.297 118.356C343.297 118.356 394.568 75.2682 449.246 112.612C449.246 112.612 507.365 103.358 550.405 120.621C579.108 132.131 588.581 144.206 588.581 144.206L293.215 141.336Z" fill="#F8FCFF"/>
<path d="M765.695 174.049H177.017V183.467H765.695V174.049Z" fill="#2B478B"/>
<path d="M545.246 366.684H527.688V372.623H545.246V366.684Z" fill="#2B478B"/>
<path d="M536.465 372.639C534.953 372.639 533.475 372.191 532.218 371.352C530.961 370.513 529.981 369.321 529.402 367.926C528.824 366.531 528.672 364.996 528.967 363.515C529.262 362.034 529.99 360.674 531.059 359.606C532.129 358.539 533.491 357.812 534.974 357.517C536.457 357.222 537.994 357.374 539.391 357.951C540.788 358.529 541.982 359.508 542.822 360.763C543.662 362.019 544.11 363.495 544.11 365.005C544.108 367.029 543.302 368.969 541.869 370.4C540.435 371.832 538.492 372.637 536.465 372.639V372.639ZM536.465 359.631C535.401 359.631 534.361 359.946 533.476 360.537C532.591 361.127 531.901 361.966 531.494 362.948C531.087 363.93 530.98 365.011 531.188 366.053C531.395 367.095 531.908 368.053 532.66 368.804C533.413 369.556 534.372 370.067 535.415 370.275C536.459 370.482 537.541 370.376 538.524 369.969C539.508 369.562 540.348 368.874 540.939 367.99C541.531 367.106 541.846 366.067 541.846 365.005C541.845 363.58 541.278 362.214 540.269 361.206C539.26 360.199 537.892 359.632 536.465 359.631V359.631Z" fill="#2B478B"/>
<path d="M572.738 458.707C592.77 438.703 592.77 406.27 572.738 386.266C552.706 366.262 520.228 366.262 500.196 386.266C480.164 406.27 480.164 438.703 500.196 458.707C520.228 478.71 552.706 478.71 572.738 458.707Z" fill="#F78248"/>
<path d="M550.866 398.145C546.71 392.699 546.418 385.933 550.235 383.03C554.051 380.128 560.504 382.195 564.664 387.641C568.824 393.087 569.111 399.853 565.294 402.752C561.478 405.65 555.042 403.575 550.866 398.145Z" fill="#FFC9A1"/>
<path d="M536.465 197.88C535.052 197.878 533.697 197.316 532.697 196.318C531.697 195.32 531.135 193.966 531.133 192.555V183.148C531.133 181.736 531.695 180.382 532.695 179.383C533.695 178.384 535.051 177.823 536.465 177.823C537.879 177.823 539.236 178.384 540.236 179.383C541.236 180.382 541.798 181.736 541.798 183.148V192.555C541.797 193.967 541.234 195.32 540.235 196.319C539.235 197.317 537.879 197.879 536.465 197.88V197.88ZM536.465 179.713C535.552 179.715 534.676 180.078 534.031 180.724C533.385 181.369 533.022 182.244 533.021 183.156V192.555C533.093 193.415 533.487 194.217 534.123 194.801C534.759 195.386 535.593 195.71 536.457 195.71C537.322 195.71 538.155 195.386 538.791 194.801C539.428 194.217 539.821 193.415 539.893 192.555V183.148C539.895 182.237 539.535 181.363 538.892 180.716C538.25 180.07 537.377 179.703 536.465 179.697V179.713Z" fill="#2B478B"/>
<path d="M537.411 196.939H535.523V359.635H537.411V196.939Z" fill="#2B478B"/>
<path d="M436.956 366.684H419.398V372.623H436.956V366.684Z" fill="#2B478B"/>
<path d="M428.175 372.639C426.663 372.639 425.185 372.191 423.928 371.352C422.671 370.513 421.691 369.321 421.112 367.926C420.534 366.531 420.382 364.996 420.677 363.515C420.972 362.034 421.7 360.674 422.769 359.606C423.839 358.539 425.201 357.812 426.684 357.517C428.167 357.222 429.704 357.374 431.101 357.951C432.498 358.529 433.692 359.508 434.532 360.763C435.372 362.019 435.82 363.495 435.82 365.005C435.818 367.029 435.012 368.969 433.579 370.4C432.145 371.832 430.202 372.637 428.175 372.639V372.639ZM428.175 359.631C427.111 359.631 426.071 359.946 425.186 360.537C424.301 361.127 423.611 361.966 423.204 362.948C422.797 363.93 422.69 365.011 422.898 366.053C423.105 367.095 423.618 368.053 424.37 368.804C425.123 369.556 426.082 370.067 427.125 370.275C428.169 370.482 429.251 370.376 430.234 369.969C431.218 369.562 432.058 368.874 432.649 367.99C433.24 367.106 433.556 366.067 433.556 365.005C433.555 363.58 432.988 362.214 431.979 361.206C430.97 360.199 429.602 359.632 428.175 359.631V359.631Z" fill="#2B478B"/>
<path d="M475.567 442.09C486.408 415.953 473.979 385.99 447.806 375.164C421.633 364.338 391.628 376.749 380.786 402.885C369.945 429.022 382.374 458.985 408.547 469.811C434.72 480.637 464.726 468.226 475.567 442.09Z" fill="#F78248"/>
<path d="M442.576 398.145C438.42 392.699 438.129 385.933 441.945 383.03C445.761 380.128 452.214 382.195 456.374 387.641C460.534 393.087 460.821 399.853 457.004 402.752C453.188 405.65 446.736 403.575 442.576 398.145Z" fill="#FFC9A1"/>
<path d="M428.175 197.88C426.762 197.878 425.407 197.316 424.407 196.318C423.407 195.32 422.845 193.966 422.843 192.555V183.148C422.843 181.736 423.405 180.382 424.405 179.383C425.405 178.384 426.761 177.823 428.175 177.823C429.589 177.823 430.946 178.384 431.946 179.383C432.946 180.382 433.508 181.736 433.508 183.148V192.555C433.506 193.966 432.943 195.32 431.943 196.318C430.944 197.316 429.589 197.878 428.175 197.88V197.88ZM428.175 179.713C427.262 179.715 426.386 180.078 425.741 180.724C425.095 181.369 424.732 182.244 424.731 183.156V192.555C424.803 193.415 425.197 194.217 425.833 194.801C426.47 195.386 427.303 195.71 428.167 195.71C429.032 195.71 429.865 195.386 430.501 194.801C431.138 194.217 431.531 193.415 431.604 192.555V183.148C431.605 182.237 431.245 181.363 430.602 180.716C429.96 180.07 429.087 179.703 428.175 179.697V179.713Z" fill="#2B478B"/>
<path d="M429.117 196.939H427.233V359.635H429.117V196.939Z" fill="#2B478B"/>
<path d="M136.436 352.361L120.337 345.364L117.964 350.81L134.063 357.807L136.436 352.361Z" fill="#2B478B"/>
<path d="M126.022 354.322C124.635 353.72 123.458 352.721 122.64 351.451C121.822 350.181 121.399 348.698 121.426 347.188C121.452 345.678 121.926 344.21 122.788 342.97C123.65 341.729 124.861 340.771 126.268 340.218C127.675 339.665 129.214 339.54 130.692 339.861C132.17 340.181 133.519 340.932 134.569 342.018C135.62 343.105 136.324 344.477 136.593 345.963C136.862 347.449 136.683 348.981 136.08 350.366C135.27 352.221 133.756 353.679 131.87 354.421C129.984 355.163 127.881 355.127 126.022 354.322ZM131.217 342.397C130.241 341.973 129.161 341.848 128.113 342.037C127.066 342.226 126.098 342.721 125.333 343.459C124.567 344.198 124.038 345.146 123.812 346.185C123.587 347.223 123.674 348.306 124.065 349.294C124.455 350.283 125.13 351.134 126.005 351.74C126.879 352.346 127.914 352.679 128.978 352.697C130.042 352.715 131.088 352.418 131.983 351.843C132.878 351.268 133.582 350.44 134.006 349.466C134.574 348.159 134.599 346.68 134.076 345.355C133.553 344.03 132.524 342.966 131.217 342.397V342.397Z" fill="#2B478B"/>
<path d="M153.42 419.825C164.357 393.729 152.038 363.72 125.905 352.798C99.7722 341.876 69.721 354.178 58.784 380.274C47.8469 406.371 60.1657 436.38 86.2987 447.302C112.432 458.223 142.483 445.922 153.42 419.825Z" fill="#F78248"/>
<path d="M129.033 383.446C127.416 376.797 129.842 370.479 134.491 369.316C139.14 368.154 144.242 372.639 145.88 379.292C147.517 385.945 145.071 392.259 140.422 393.402C135.773 394.544 130.671 390.099 129.033 383.446Z" fill="#FFC9A1"/>
<path d="M193.213 197.88C191.799 197.878 190.444 197.316 189.444 196.318C188.445 195.32 187.882 193.966 187.88 192.555V183.148C187.88 181.736 188.442 180.382 189.442 179.383C190.442 178.384 191.798 177.823 193.213 177.823C194.627 177.823 195.983 178.384 196.983 179.383C197.983 180.382 198.545 181.736 198.545 183.148V192.555C198.543 193.966 197.98 195.32 196.981 196.318C195.981 197.316 194.626 197.878 193.213 197.88V197.88ZM193.213 179.713C192.302 179.717 191.43 180.08 190.786 180.724C190.142 181.367 189.78 182.239 189.776 183.148V192.555C189.836 193.424 190.224 194.239 190.862 194.833C191.5 195.428 192.34 195.759 193.213 195.759C194.085 195.759 194.926 195.428 195.563 194.833C196.201 194.239 196.589 193.424 196.649 192.555V183.148C196.65 182.236 196.289 181.36 195.645 180.713C195.001 180.066 194.126 179.701 193.213 179.697V179.713Z" fill="#2B478B"/>
<path d="M131.435 342.813L129.773 341.924C129.891 341.702 141.958 319.082 155.647 290.003C168.261 263.18 184.864 225.219 192.319 196.697L194.147 197.173C186.651 225.837 169.999 263.915 157.357 290.81C143.64 319.934 131.556 342.586 131.435 342.813Z" fill="#2B478B"/>
<path d="M664.03 357.83L680.129 350.833L677.756 345.388L661.657 352.385L664.03 357.83Z" fill="#2B478B"/>
<path d="M662.03 350.366C661.427 348.981 661.249 347.449 661.518 345.964C661.787 344.478 662.491 343.106 663.542 342.02C664.592 340.934 665.941 340.183 667.418 339.862C668.896 339.542 670.435 339.666 671.842 340.219C673.249 340.772 674.46 341.729 675.322 342.97C676.184 344.21 676.658 345.678 676.685 347.187C676.712 348.697 676.29 350.18 675.472 351.45C674.655 352.72 673.479 353.72 672.092 354.322C670.232 355.129 668.128 355.165 666.242 354.423C664.355 353.681 662.84 352.222 662.03 350.366V350.366ZM664.108 349.466C664.532 350.44 665.237 351.268 666.132 351.842C667.027 352.417 668.073 352.714 669.137 352.695C670.202 352.677 671.236 352.343 672.111 351.737C672.985 351.131 673.66 350.28 674.05 349.291C674.44 348.301 674.527 347.219 674.3 346.18C674.074 345.142 673.544 344.194 672.778 343.456C672.012 342.718 671.044 342.223 669.997 342.035C668.949 341.846 667.869 341.972 666.893 342.397C666.245 342.679 665.658 343.086 665.167 343.594C664.676 344.103 664.29 344.703 664.031 345.361C663.773 346.018 663.646 346.721 663.659 347.427C663.672 348.133 663.825 348.83 664.108 349.478V349.466Z" fill="#2B478B"/>
<path d="M742.81 406.979C746.664 378.953 727.037 353.112 698.971 349.263C670.905 345.414 645.029 365.014 641.174 393.04C637.32 421.067 656.947 446.907 685.013 450.756C713.078 454.606 738.955 435.006 742.81 406.979Z" fill="#F78248"/>
<path d="M669.081 383.446C670.718 376.797 668.272 370.479 663.619 369.316C658.966 368.154 653.868 372.639 652.23 379.292C650.593 385.945 653.039 392.259 657.688 393.402C662.337 394.544 667.431 390.099 669.081 383.446Z" fill="#FFC9A1"/>
<path d="M604.889 197.88C603.476 197.878 602.121 197.316 601.121 196.318C600.121 195.32 599.559 193.966 599.557 192.555V183.148C599.557 181.736 600.119 180.382 601.119 179.383C602.119 178.384 603.475 177.823 604.889 177.823C606.304 177.823 607.66 178.384 608.66 179.383C609.66 180.382 610.222 181.736 610.222 183.148V192.555C610.221 193.967 609.658 195.32 608.659 196.319C607.659 197.317 606.303 197.879 604.889 197.88V197.88ZM604.889 179.713C603.976 179.715 603.1 180.078 602.455 180.724C601.809 181.369 601.446 182.244 601.445 183.156V192.555C601.517 193.415 601.911 194.217 602.547 194.801C603.184 195.386 604.017 195.71 604.881 195.71C605.746 195.71 606.579 195.386 607.215 194.801C607.852 194.217 608.245 193.415 608.318 192.555V183.148C608.319 182.237 607.959 181.363 607.316 180.716C606.674 180.07 605.801 179.703 604.889 179.697V179.713Z" fill="#2B478B"/>
<path d="M666.675 342.813C666.554 342.586 654.47 319.934 640.773 290.81C628.123 263.915 611.471 225.837 603.984 197.173L605.807 196.697C609.922 212.442 619.629 241.412 642.483 290.011C656.16 319.078 668.224 341.686 668.357 341.924L666.675 342.813Z" fill="#2B478B"/>
<path d="M877.191 450.471C877.191 450.471 865.746 493.668 879.879 518.613C881.757 521.991 884.202 525.021 887.108 527.572C889.513 529.655 892.177 531.843 895.019 534.087C895.034 534.094 895.046 534.104 895.056 534.116C895.792 534.689 896.544 535.274 897.304 535.856L897.385 535.912C919.499 552.973 951.057 572.787 960.856 578.863L963.896 580.724L964.665 577.248L972.479 542.004L987.927 472.36L916.919 458.319H916.891L877.191 450.471Z" fill="#FFB27D"/>
<path d="M854.135 403.45C854.135 403.45 845.952 408.448 815.183 388.674C784.413 368.9 777.209 316.963 777.209 316.963C769.641 308.889 758.835 295.643 749.953 284.472C741.168 273.422 734.266 264.391 734.266 264.391L725.154 259.018L714.966 253.019C702.688 245.78 698.795 235.918 697.602 229.704C697.253 227.977 697.079 226.219 697.081 224.456C698.56 224.601 700.028 224.844 701.475 225.183C704.532 226.148 708.959 227.577 714.008 229.264C729.658 234.488 751.388 242.183 757.553 246.745C762.501 250.379 775.321 265.76 787.567 281.303C799.905 296.959 811.678 312.792 814.249 317.007C815.401 318.872 817.855 324.06 821.013 331.04C832.114 355.441 851.823 401.71 854.135 403.45Z" fill="#FFB27D"/>
<path d="M725.154 259.022L749.952 284.456L757.763 292.474C757.763 292.474 790.295 321.662 821.057 331.012C817.895 324.032 815.445 318.844 814.297 316.979C811.71 312.756 799.937 296.931 787.615 281.275C774.868 274.153 755.62 263.737 751.25 263.439C744.563 262.995 725.154 259.022 725.154 259.022Z" fill="#F6A56E"/>
<path d="M897.389 535.92C897.365 535.895 897.34 535.872 897.312 535.852V535.852C896.605 535.217 895.853 534.636 895.06 534.112C895.06 534.112 895.04 534.112 895.028 534.083C889.873 530.539 874.794 521.996 835.744 509.627C835.744 509.627 835.716 509.627 835.708 509.627C831.18 508.185 826.341 506.692 821.154 505.186C805.294 500.499 759.983 447.859 785.921 450.523C793.113 451.262 795.486 444.928 795.531 441.553C795.68 430.923 791.654 422.602 786.56 408.537C773.906 373.604 786.042 338 781.862 331.9C781.081 330.966 780.224 330.097 779.299 329.304C772.107 322.631 752.144 305.937 740.812 294.831H740.783C735.322 291.327 688.797 290.653 681.051 281.973C680.248 281.045 679.725 279.909 679.542 278.696C679.36 277.483 679.525 276.243 680.02 275.12C680.514 273.998 681.317 273.038 682.335 272.352C683.353 271.666 684.546 271.283 685.773 271.246C709.678 270.439 731.376 261.699 756.077 270.173C761.931 272.191 811.399 312.377 823.123 324.363C833.028 334.48 850.46 372.95 866.999 411.641C881.581 445.731 915.824 457.959 916.887 458.339H916.915L900.857 522.126L897.389 535.92Z" fill="#FFB27D"/>
<path d="M837.111 422.417L802.606 415.606C798.235 358.913 786.839 339.147 781.866 331.88C779.962 329.102 753.34 308.231 740.816 294.807C760.262 310.205 800.9 328.073 800.9 328.073C811.661 337.475 834.548 421.803 837.111 422.417Z" fill="#F6A56E"/>
<path d="M710.567 234.234C710.04 234.335 709.496 234.313 708.979 234.169C708.979 234.169 704.034 232.805 700.408 231.788C699.271 231.416 698.286 230.684 697.602 229.704C696.517 228.222 695.865 226.468 695.718 224.638C695.718 224.44 696.199 224.379 697.081 224.444C698.56 224.589 700.028 224.832 701.475 225.171C705.773 226.131 709.969 227.498 714.008 229.252H714.044C713.794 231.957 712.387 233.867 710.567 234.234Z" fill="#FFC69F"/>
<path d="M728.186 318.469C724.523 318.691 694.975 333.119 684.395 338.339C683.902 338.581 683.47 338.929 683.13 339.359C682.79 339.789 682.551 340.29 682.43 340.824C682.31 341.359 682.311 341.914 682.433 342.448C682.555 342.982 682.796 343.482 683.137 343.911C685.033 346.28 687.989 349.159 691.797 350.467C705.785 355.311 718.69 339.599 736.401 345.719C749.766 352.615 772.333 360.875 773.142 362.304C783.924 381.42 780.18 405.469 792.507 417.681C793.259 418.424 802.173 423.555 807.231 425.093C825.176 430.515 851.479 431.524 852.817 420.971C853.14 418.367 803.495 339.219 792.268 333.031C789.616 331.573 742.198 317.621 728.186 318.469Z" fill="#FFB27D"/>
<path d="M691.178 276.236C690.633 276.49 690.041 276.628 689.44 276.64C689.44 276.64 683.78 276.814 679.628 276.927C676.887 276.999 674.433 274.621 673.9 273.374C673.56 272.587 683.893 269.337 694.029 270.435C694.328 273.176 693.062 275.324 691.178 276.236Z" fill="#FFC69F"/>
<path d="M696.903 338.364C696.529 338.788 696.067 339.126 695.549 339.353C695.549 339.353 690.645 341.496 687.059 343.059C684.682 344.088 681.536 342.821 680.546 341.892C679.919 341.307 687.649 334.75 697.02 332.179C698.395 334.508 698.177 336.882 696.903 338.364Z" fill="#FFC69F"/>
<path d="M983.112 593.841C958.758 583.902 938.872 573.95 939.215 567.959C939.264 567.059 939.328 566.154 939.405 565.238C940.177 555.44 942.118 544.988 944.786 534.58C949.4 516.819 955.693 499.537 963.581 482.965C966.12 477.673 968.635 472.961 970.983 469.033C975.329 461.766 979.122 457.196 981.547 456.599C986.217 455.444 990.708 456.938 995.677 459.308C999.255 461.008 1003.1 463.184 1007.46 465.158L1008.27 465.509C1008.63 465.674 1009.01 465.844 1009.41 466.005C1009.8 466.167 1010.15 466.324 1010.56 466.478C1011.34 466.797 1012.13 467.099 1012.95 467.394C1013.77 467.689 1014.57 467.955 1015.38 468.202C1015.68 468.29 1015.96 468.383 1016.26 468.464L1017.13 468.714C1017.72 468.884 1018.31 469.025 1018.91 469.167C1019.07 469.211 1019.24 469.251 1019.4 469.288C1025.56 498.738 1018.28 537.677 983.112 593.841Z" fill="#F78248"/>
<path d="M789.847 493.898C789.847 493.898 714.376 456.135 698.811 455.037C698.811 455.037 698.379 442.925 716.862 439.97C735.346 437.015 777.686 453.357 790.267 450.063C837.519 437.669 861.335 455.747 861.335 455.747C861.335 455.747 864.315 531.048 789.847 493.898Z" fill="#FFB27D"/>
<path d="M719.045 450.919C718.343 450.56 717.589 450.315 716.81 450.192C716.81 450.192 709.65 449.102 704.394 448.319C702.717 448.067 701.004 448.417 699.561 449.308C698.118 450.199 697.039 451.572 696.515 453.184C696.248 453.991 696.143 454.467 696.143 454.467C699.988 456.223 709.545 460.927 722.219 461.363C722.316 458.512 721.516 452.194 719.045 450.919Z" fill="#FFC69F"/>
<path d="M236.47 303.81C236.442 303.059 235.86 294.96 223.534 294.524C223.534 294.524 229.598 295.247 230.653 297.912C230.653 297.912 226.521 294.617 223.154 295.675C219.786 296.733 217.809 302.627 217.789 304.557C217.769 306.486 219.636 312.74 221.775 313.273C222.629 313.447 223.509 313.447 224.362 313.273C223.754 314.227 223.201 315.215 222.705 316.232C217.777 326.325 222.858 336.204 227.031 335.114C229.707 334.415 230.463 338.973 230.463 338.973L256.454 317.98C256.454 317.98 246.905 298.259 236.47 303.81Z" fill="#2C3A64"/>
<path d="M245.534 601.394L240.016 603.413C240.016 603.413 216.034 570.2 213.083 540.979C212.557 535.763 212.731 530.708 213.892 526.042C213.892 526.042 213.657 524.705 213.249 522.343C213.059 521.241 212.844 519.921 212.557 518.391C211.777 513.95 210.706 507.826 209.481 500.878C206.651 484.887 203.012 464.443 200.162 449.413L201.65 448.936L217.744 443.749L221.072 433.2L233.058 430.051C233.058 430.051 235.735 435.299 238.128 459.986C238.569 463.216 238.973 466.801 239.272 470.676C240.376 485.103 239.994 499.605 238.132 513.954C237.582 518.246 236.887 522.683 236.026 527.237C235.395 530.575 235.302 535.125 235.569 540.353C236.758 564.253 245.534 601.394 245.534 601.394Z" fill="#AEC3FF"/>
<path d="M239.252 470.688L213.228 522.364C213.038 521.262 212.824 519.941 212.537 518.411C211.757 513.97 210.686 507.846 209.461 500.898C206.631 484.907 202.992 464.463 200.142 449.433L201.63 448.957L217.724 443.769L221.051 433.22L233.038 430.071C233.038 430.071 235.714 435.319 238.108 460.006C238.548 463.24 238.953 466.813 239.252 470.688Z" fill="#94B0ED"/>
<path d="M300.262 419.546L299.51 424.593C299.51 424.593 299.178 424.593 298.592 424.552C296.752 424.427 292.281 424.177 287.228 423.636C279.623 422.885 270.6 421.549 267.014 419.336C261.54 416.002 252.557 405.78 246.707 395.554C246.556 395.312 246.421 395.061 246.302 394.803C243.254 389.381 241.124 383.999 240.954 379.7C240.824 377.397 241.064 375.088 241.665 372.861C242.274 370.617 243.325 368.516 244.758 366.684C244.916 366.42 245.112 366.18 245.34 365.973C246.447 364.616 247.792 363.47 249.31 362.594C250.313 362.191 251.4 362.679 252.545 363.89V363.931C253.692 365.214 254.661 366.645 255.427 368.186C255.467 368.226 255.512 368.271 255.512 368.311C255.718 368.686 255.916 369.118 256.179 369.563C256.25 369.65 256.306 369.748 256.345 369.853C256.806 370.814 257.265 371.817 257.723 372.861C262.866 384.04 268.336 400.979 272.892 406.026C274.857 408.198 283.84 412.453 290.983 415.622C296.085 417.875 300.262 419.546 300.262 419.546Z" fill="#FFB27D"/>
<path d="M247.087 374.104C243.422 375.745 239.477 376.668 235.464 376.825C218.108 377.774 214.17 362.582 213.451 352.502C215.362 351.841 217.39 351.585 219.406 351.751C220.639 351.815 221.92 351.94 222.98 352.074C225.102 350.968 228.919 345.586 231.122 336.587L231.87 336.934L244.402 342.813C244.402 342.813 243.072 346.882 242.09 350.778C241.326 353.826 240.776 356.769 241.233 357.592C242.223 357.996 242.814 358.242 242.814 358.242C244.741 363.382 246.172 368.693 247.087 374.104V374.104Z" fill="#FFB27D"/>
<path d="M251.429 385.485C251.295 385.828 251.154 386.167 250.996 386.514C246.602 395.965 238.464 435.121 238.464 435.121C239.624 442.162 185.503 433.741 185.345 427.33C183.437 420.531 192.109 409.615 197.001 404.136C197.612 403.45 198.162 402.711 198.642 401.928C199.857 399.969 200.614 397.761 200.858 395.469C201.82 386.385 201.456 377.871 201.537 372.691C202.491 371.985 203.417 371.331 204.274 370.709C205.467 369.89 206.584 368.965 207.613 367.948C208.555 366.959 209.145 365.929 209.23 364.799C209.279 363.92 209.257 363.038 209.166 362.162C209.125 361.759 209.069 361.327 209.008 360.907C208.514 358.02 207.669 355.204 206.489 352.522C211.147 350.641 223 352.086 223 352.086C223 352.086 223.954 361.149 237.15 361.508C241.892 361.638 241.245 357.605 241.245 357.605C248.676 360.515 252.908 363.612 252.908 363.612C248.409 366.506 254.889 376.313 251.429 385.485Z" fill="#F99746"/>
<path d="M244.39 342.825C244.39 342.825 243.06 346.89 242.078 350.786C234.76 348.767 232.537 341.064 231.87 336.947L244.39 342.825Z" fill="#ED985F"/>
<path d="M245.935 347.128C245.935 347.128 228.421 343.091 231.114 332.231C233.806 321.371 233.357 313.551 244.653 315.679C255.949 317.807 257.081 322.482 257.064 326.321C257.048 330.16 250.555 347.903 245.935 347.128Z" fill="#FFB27D"/>
<path d="M258.051 320.156C256.167 316.224 253.951 316.434 252.569 317.132C244.338 309.53 236.268 315.74 236.268 315.74C234.315 320.29 230.838 324.021 226.432 326.293C226.432 326.293 229.121 329.046 236.919 328.985C239.3 328.985 241.694 327.875 243.873 326.369C241.153 329.04 238.08 331.327 234.74 333.168C244.503 331.303 251.045 320.023 251.72 318.824C252.528 320.035 254.145 322.639 254.263 324.831C254.445 327.806 253.418 333.592 255.124 333.81C255.12 333.81 260.873 326.062 258.051 320.156Z" fill="#2C3A64"/>
<path d="M252.884 363.608C252.884 363.608 255.476 365.194 257.735 372.841C257.735 372.841 252.27 372.631 250.054 376.829C250.058 376.829 249.529 364.597 252.884 363.608Z" fill="#F99746"/>
<path d="M223.889 421.964C213.208 421.851 204.169 410.777 198.642 401.928C199.857 399.969 200.614 397.761 200.858 395.469C201.82 386.385 201.456 377.871 201.537 372.691C202.491 371.985 203.417 371.331 204.274 370.709C205.467 369.889 206.584 368.965 207.613 367.948C216.354 382.703 238.366 422.118 223.889 421.964Z" fill="#ED7D2B"/>
<path d="M203.109 610.631H175.303C175.303 610.631 174.636 606.396 176.087 603.187C177.482 600.107 179.661 598.706 179.14 594.979C180.906 596.796 183.785 598.831 187.803 598.29C188.297 599.097 190.985 603.357 192.631 604.535C194.446 605.835 202.552 605.375 203.109 610.631Z" fill="#233862"/>
<path d="M262.813 610.631H235.007C235.007 610.631 233.968 606.191 235.816 603.187C237.433 600.522 236.81 599 235.613 596.796C237.09 597.432 238.688 597.732 240.295 597.676C241.682 597.596 243.145 596.97 244.431 596.223C245.644 597.587 250.754 603.385 252.355 604.535C254.15 605.835 262.255 605.375 262.813 610.631Z" fill="#233862"/>
<path d="M266.508 429.449L265.392 433.761C265.392 433.761 251.506 430.854 248.453 430.184H248.413C243.19 428.932 237.344 427.431 232.411 425.743C228.943 424.532 225.943 423.24 223.889 421.944C223.685 421.823 223.489 421.688 223.303 421.54C218.415 417.996 212.606 407.564 208.094 396.381C207.467 394.839 206.881 393.293 206.299 391.791C204.329 386.629 202.737 381.33 201.537 375.937C200.945 373.458 200.567 370.932 200.409 368.388C200.352 367.679 200.338 366.967 200.364 366.256C200.449 354.145 206.465 352.49 206.465 352.49C206.59 352.449 206.716 352.409 206.869 352.364C207.912 352.199 209 352.909 210.128 354.286C211.547 355.994 213.051 358.791 214.599 362.171C216.98 367.552 219.487 374.52 221.823 381.448C223.121 385.243 224.374 389.038 225.628 392.542C226.339 394.669 227.047 396.672 227.718 398.509C229.011 402.013 230.18 404.851 231.227 406.643C231.894 407.814 233.814 409.441 236.365 411.278C240.808 414.496 266.508 429.449 266.508 429.449Z" fill="#FFB27D"/>
<path d="M214.599 362.195C206.554 359.982 200.352 366.232 200.352 366.232C200.453 354.153 206.473 352.506 206.473 352.506C208.895 351.516 211.704 355.707 214.599 362.195Z" fill="#F99746"/>
<path d="M331.9 367.136L314.379 366.007L313.996 371.934L331.517 373.062L331.9 367.136Z" fill="#2B478B"/>
<path d="M322.723 372.542C321.214 372.445 319.768 371.902 318.568 370.984C317.367 370.066 316.467 368.813 315.979 367.384C315.492 365.955 315.44 364.413 315.83 362.954C316.22 361.496 317.035 360.185 318.171 359.188C319.306 358.192 320.713 357.554 322.212 357.356C323.711 357.157 325.235 357.407 326.591 358.074C327.948 358.74 329.076 359.794 329.834 361.101C330.591 362.408 330.943 363.91 330.845 365.416C330.712 367.436 329.782 369.32 328.26 370.656C326.737 371.992 324.746 372.67 322.723 372.542V372.542ZM323.56 359.563C322.498 359.494 321.439 359.741 320.518 360.273C319.597 360.805 318.854 361.598 318.384 362.551C317.914 363.505 317.737 364.576 317.877 365.63C318.017 366.684 318.466 367.672 319.169 368.471C319.871 369.269 320.795 369.842 321.823 370.116C322.851 370.39 323.938 370.354 324.946 370.011C325.953 369.669 326.836 369.036 327.483 368.192C328.131 367.348 328.513 366.332 328.581 365.271C328.669 363.851 328.19 362.454 327.249 361.386C326.308 360.318 324.982 359.665 323.56 359.571V359.563Z" fill="#2B478B"/>
<path d="M370.8 423.758C371.601 395.479 349.294 371.907 320.976 371.107C292.658 370.307 269.052 392.583 268.251 420.861C267.45 449.14 289.757 472.712 318.075 473.512C346.393 474.312 369.999 452.036 370.8 423.758Z" fill="#F78248"/>
<path d="M335.446 398.925C331.646 393.22 331.807 386.45 335.79 383.801C339.772 381.153 346.095 383.624 349.891 389.324C353.687 395.025 353.529 401.799 349.547 404.447C345.565 407.096 339.246 404.625 335.446 398.925Z" fill="#FFC9A1"/>
<path d="M334.346 198.154C334.229 198.154 334.116 198.154 333.999 198.154C332.589 198.062 331.273 197.415 330.34 196.356C329.407 195.296 328.933 193.91 329.022 192.502L329.628 183.104C329.66 182.396 329.833 181.702 330.136 181.062C330.44 180.422 330.868 179.849 331.396 179.377C331.924 178.904 332.541 178.541 333.212 178.31C333.882 178.078 334.591 177.982 335.299 178.028C336.007 178.074 336.698 178.26 337.333 178.576C337.968 178.891 338.533 179.33 338.996 179.867C339.459 180.403 339.809 181.027 340.028 181.7C340.247 182.374 340.329 183.085 340.269 183.79L339.662 193.189C339.57 194.535 338.97 195.796 337.984 196.717C336.997 197.639 335.697 198.152 334.346 198.154V198.154ZM334.949 179.987C334.072 179.989 333.229 180.323 332.591 180.923C331.952 181.523 331.567 182.343 331.512 183.217L330.902 192.615C330.866 193.512 331.183 194.388 331.785 195.054C332.387 195.721 333.226 196.127 334.123 196.184C335.02 196.241 335.904 195.946 336.586 195.362C337.269 194.777 337.695 193.95 337.774 193.055L338.385 183.661C338.437 182.751 338.126 181.858 337.519 181.177C336.913 180.496 336.061 180.083 335.151 180.028C335.084 180.013 335.016 180.003 334.949 179.995V179.987Z" fill="#2B478B"/>
<path d="M333.154 197.167L322.64 359.524L324.524 359.646L335.038 197.289L333.154 197.167Z" fill="#2B478B"/>
<path d="M263.828 427.887C263.828 427.887 270.899 430.636 272.269 431.71C273.64 432.784 276.268 436.28 276.737 438.125C276.737 438.125 276.712 438.88 276.009 438.88C275.305 438.88 273.721 436.175 272.56 436.607C272.56 436.607 274.036 440.188 274.901 441.096C275.766 442.005 276.264 446.563 276.09 447.556C275.916 448.549 269.957 443.825 267.462 441.682C266.136 440.539 266.173 437.766 265.764 434.633C265.401 431.888 257.808 430.297 257.808 430.297L263.828 427.887Z" fill="#FFB27D"/>
<path d="M878.869 340.362C878.869 340.362 899.115 360.931 900.259 370.366C901.403 379.801 888.664 394.528 888.664 394.528L878.869 340.362Z" fill="#94B0ED"/>
<path d="M863.959 595.646C863.959 595.646 863.106 608.94 860.526 609.126C860.187 609.15 847.46 609.126 847.46 609.126L829.963 609.275C830.461 607.982 831.287 606.841 832.36 605.964C833.433 605.087 834.717 604.504 836.084 604.273C840.834 603.466 848.786 600.143 851.677 593.881C854.717 587.293 863.959 595.646 863.959 595.646Z" fill="#163560"/>
<path d="M900.138 595.743C900.138 595.743 899.285 609.037 896.705 609.223C896.366 609.247 883.639 609.223 883.639 609.223L866.926 609.509C867.164 608.202 867.807 607.002 868.765 606.079C869.722 605.156 870.946 604.557 872.263 604.366C877.013 603.558 884.965 600.236 887.856 593.978C890.896 587.37 900.138 595.743 900.138 595.743Z" fill="#163560"/>
<path d="M846.284 452.691C846.284 452.691 850.472 479.833 866.215 528.032C881.957 576.231 884.072 597.091 884.072 597.091L901.071 596.651C901.071 596.651 901.33 544.015 894.082 519.78C886.833 495.545 892.695 432.461 892.695 432.461L846.284 452.691Z" fill="#163560"/>
<path d="M838.036 433.829C838.036 433.829 837.349 474.713 844.323 524.931C851.297 575.149 848.851 596.449 848.851 596.449L865.831 597.05C865.831 597.05 876.079 546.853 873.229 521.718C870.379 496.583 887.298 435.529 887.298 435.529L838.036 433.829Z" fill="#1C468A"/>
<path d="M871.102 338.222L862.051 344.121L848.992 341.662C849.174 340.608 850.048 336.244 850.84 332.292C850.888 332.062 850.937 331.827 850.981 331.597C851.661 328.234 852.247 325.348 852.247 325.348L864.46 319.999L869.016 318.004C869.016 318.073 868.656 321.735 868.612 322.272C867.731 331.763 871.102 338.222 871.102 338.222Z" fill="#FFB27D"/>
<path d="M893.827 438.997C891.179 450.943 847.509 452.267 836.278 441.391C835 440.152 834.948 434.399 835.469 426.643C836.444 411.488 839.512 388.694 839.67 377.047C839.8 371.468 840.436 365.912 841.57 360.447C842.921 353.695 844.787 347.056 847.153 340.588C847.153 340.588 868.495 333.749 872.485 334.936C891.656 340.596 896.455 427.051 893.827 438.997Z" fill="#AEC3FF"/>
<path d="M835.429 426.643C836.403 411.488 839.472 388.694 839.629 377.047C839.76 371.468 840.396 365.912 841.529 360.447L854.365 358.214C854.365 358.214 866.797 409.405 835.429 426.643Z" fill="#94B0ED"/>
<path d="M842.423 405.533C842.423 405.533 843.292 407.621 841.453 409.017C839.613 410.414 839.278 411.924 839.694 413.583C840.11 415.243 843.272 418.719 844.671 418.287C846.069 417.855 847.678 414.221 846.922 412.711C846.518 411.884 850.537 407.12 847.141 404.496C843.745 401.872 842.423 405.533 842.423 405.533Z" fill="#FFB27D"/>
<path d="M856.916 337.544C856.916 337.544 844.384 339.853 834.394 354.5C824.404 369.147 817.819 380.043 819.638 385.336C821.457 390.628 838.162 409.005 841.065 409.009C843.967 409.013 848.612 406.93 848.883 402.215C848.883 402.215 837.139 384.548 839.464 381.912C840.458 380.786 854.794 369.215 856.848 374.46C860.171 383.143 856.916 337.544 856.916 337.544Z" fill="#AEC3FF"/>
<path d="M867.69 322.429C865.002 326.955 855.008 330.855 850.84 332.284C850.888 332.054 850.937 331.819 850.982 331.589C851.661 328.226 852.247 325.34 852.247 325.34L864.46 319.991C867.144 319.966 868.798 320.572 867.69 322.429Z" fill="#FCA56B"/>
<path d="M847.65 324.597C847.65 324.597 867.294 330.762 870.949 318.489C874.603 306.216 879.604 298.743 867.217 294.29C854.83 289.837 850.99 293.79 848.77 297.589C846.551 301.388 842.637 322.675 847.65 324.597Z" fill="#FFB27D"/>
<path d="M849.542 296.41C849.542 296.41 850.755 310.705 853.727 310.088C856.698 309.47 859.386 309.022 858.93 313.317C858.473 317.613 854.373 322.603 863.494 323.37C872.614 324.137 885.778 300.689 883.303 296.236C876.079 283.402 839.128 280.73 849.542 296.41Z" fill="#163560"/>
<path d="M852.352 335.194C852.611 335.102 868.095 330.56 869.772 331.121C871.45 331.682 872.445 334.928 872.445 334.928C868.504 335.119 864.593 335.713 860.773 336.7C857.086 337.714 846.381 342.381 846.381 342.381C846.381 342.381 847.452 336.922 852.352 335.194Z" fill="#94B0ED"/>
<path d="M103.669 609.695H146.866C149.183 607.733 145.249 603.28 141.174 602.981C139.395 602.848 137.131 603.219 134.58 603.76C133.986 595.876 130.59 560.43 117.795 561.855C103.41 563.47 117.795 577.462 121.862 585.763C124.873 591.907 128.055 600.7 129.506 604.879C128.338 605.133 127.129 605.379 125.892 605.605C123.988 599.759 116.893 580.095 107.87 581.241C97.2774 582.581 101.534 590.466 109.042 595.149C114.552 598.589 121.316 603.482 124.53 605.843C121.74 606.328 118.912 606.555 116.08 606.522C108.682 606.344 105.08 608.524 103.669 609.695Z" fill="#A8D29F"/>
<path d="M743.031 609.469H700.82C698.561 607.555 702.385 603.203 706.383 602.912C708.122 602.779 710.317 603.143 712.823 603.671C713.406 595.973 716.721 561.346 729.221 562.739C743.274 564.297 729.221 577.987 725.247 586.09C722.304 592.097 719.183 600.704 717.78 604.765C718.924 605.016 720.105 605.254 721.309 605.476C723.173 599.767 730.102 580.559 738.916 581.677C749.265 582.985 745.105 590.688 737.771 595.262C732.391 598.621 725.781 603.401 722.643 605.71C725.367 606.184 728.13 606.404 730.895 606.368C738.123 606.195 741.653 608.322 743.031 609.469Z" fill="#A8D29F"/>
<path d="M567.724 571.726C570.428 572.82 580.079 571.936 580.39 571.164C580.701 570.393 574.39 563.05 571.69 561.956C570.4 561.469 568.971 561.505 567.708 562.056C566.444 562.608 565.447 563.631 564.929 564.907C564.411 566.183 564.413 567.61 564.936 568.885C565.458 570.159 566.459 571.178 567.724 571.726V571.726Z" fill="#A8D29F"/>
<path d="M592.074 576.324C590.557 578.811 589.87 588.464 590.582 588.9C591.293 589.336 599.569 584.293 601.093 581.81C601.822 580.617 602.046 579.184 601.716 577.825C601.386 576.467 600.529 575.295 599.334 574.568C598.139 573.84 596.704 573.616 595.344 573.946C593.984 574.275 592.81 575.131 592.082 576.324H592.074Z" fill="#A8D29F"/>
<path d="M579.064 595.218C581.841 596.102 591.399 594.487 591.649 593.696C591.9 592.904 585.051 586.061 582.274 585.177C581.614 584.967 580.918 584.888 580.228 584.946C579.537 585.004 578.865 585.197 578.249 585.514C577.633 585.832 577.086 586.267 576.639 586.796C576.191 587.324 575.852 587.936 575.642 588.595C575.431 589.254 575.352 589.948 575.41 590.638C575.468 591.327 575.661 591.999 575.979 592.614C576.297 593.229 576.733 593.775 577.262 594.222C577.791 594.669 578.404 595.007 579.064 595.218V595.218Z" fill="#A8D29F"/>
<path d="M593.121 604.564C593.121 604.342 592.045 582.493 580.063 571.209L580.317 570.942C592.409 582.327 593.485 604.325 593.493 604.547L593.121 604.564Z" fill="#A8D29F"/>
<path d="M633.116 572.194C631.43 573.312 624.755 574.043 624.436 573.567C624.117 573.09 627.387 567.228 629.069 566.11C629.877 565.575 630.865 565.382 631.815 565.574C632.765 565.766 633.601 566.327 634.137 567.133C634.673 567.94 634.866 568.927 634.674 569.876C634.482 570.825 633.92 571.659 633.112 572.194H633.116Z" fill="#A8D29F"/>
<path d="M617.22 578.686C618.594 580.163 620.397 586.623 619.977 587.014C619.556 587.406 613.234 585.133 611.859 583.651C611.533 583.3 611.279 582.887 611.112 582.438C610.945 581.988 610.868 581.51 610.886 581.031C610.904 580.552 611.016 580.081 611.217 579.646C611.417 579.21 611.701 578.818 612.053 578.492C612.405 578.166 612.818 577.912 613.268 577.745C613.718 577.579 614.197 577.502 614.677 577.52C615.156 577.538 615.628 577.65 616.064 577.85C616.501 578.05 616.893 578.334 617.22 578.686V578.686Z" fill="#A8D29F"/>
<path d="M628.669 589.715C626.906 590.7 620.179 590.926 619.916 590.422C619.653 589.917 623.336 584.326 625.099 583.34C625.518 583.106 625.979 582.957 626.456 582.901C626.933 582.845 627.417 582.883 627.879 583.014C628.341 583.144 628.773 583.364 629.15 583.661C629.527 583.958 629.841 584.327 630.076 584.745C630.31 585.164 630.46 585.624 630.516 586.101C630.572 586.577 630.534 587.06 630.403 587.521C630.272 587.983 630.052 588.414 629.754 588.79C629.457 589.167 629.088 589.481 628.669 589.715V589.715Z" fill="#A8D29F"/>
<path d="M620.422 597.999C620.397 597.85 618.093 582.868 624.667 573.55L624.456 573.405C617.822 582.808 620.143 597.89 620.167 598.032L620.422 597.999Z" fill="#A8D29F"/>
<path d="M608.56 603.288L607.796 603.167C604.796 564.378 592.935 536.554 592.769 536.15L593.46 535.852C593.626 536.247 605.577 564.253 608.56 603.288Z" fill="#A8D29F"/>
<path d="M584.72 532.259C586.183 533.914 593.032 536.578 593.505 536.159C593.978 535.739 592.183 528.625 590.719 526.97C590.376 526.563 589.954 526.228 589.479 525.986C589.004 525.744 588.485 525.599 587.953 525.56C587.422 525.521 586.887 525.588 586.382 525.758C585.876 525.928 585.41 526.197 585.01 526.55C584.61 526.902 584.285 527.331 584.054 527.81C583.822 528.29 583.689 528.811 583.662 529.343C583.635 529.875 583.714 530.407 583.896 530.908C584.078 531.408 584.358 531.868 584.72 532.259Z" fill="white"/>
<path d="M595.215 526.49C593.897 528.262 592.696 535.505 593.194 535.88C593.691 536.255 600.305 533.054 601.627 531.27C601.941 530.849 602.169 530.37 602.298 529.861C602.427 529.352 602.455 528.823 602.379 528.303C602.303 527.783 602.125 527.284 601.856 526.833C601.587 526.382 601.232 525.988 600.81 525.674C600.389 525.36 599.909 525.132 599.399 525.004C598.89 524.875 598.36 524.847 597.839 524.923C597.319 524.999 596.819 525.176 596.367 525.445C595.915 525.714 595.521 526.069 595.207 526.49H595.215Z" fill="white"/>
<path d="M603.094 534.192C600.964 533.611 593.796 535.145 593.61 535.751C593.424 536.356 598.866 541.322 600.992 541.903C601.503 542.054 602.039 542.102 602.569 542.043C603.099 541.985 603.612 541.821 604.077 541.562C604.543 541.303 604.952 540.953 605.28 540.534C605.609 540.115 605.85 539.635 605.99 539.121C606.13 538.607 606.166 538.071 606.096 537.543C606.025 537.016 605.85 536.508 605.58 536.048C605.31 535.589 604.952 535.189 604.525 534.87C604.098 534.551 603.612 534.321 603.094 534.192V534.192Z" fill="white"/>
<path d="M598.239 543.793C598.029 541.592 594.043 535.424 593.416 535.488C592.789 535.553 590.06 542.351 590.271 544.56C590.372 545.615 590.89 546.587 591.709 547.261C592.528 547.935 593.582 548.257 594.639 548.155C595.695 548.053 596.668 547.536 597.344 546.718C598.019 545.9 598.341 544.848 598.239 543.793V543.793Z" fill="white"/>
<path d="M587.335 543.32C589.292 542.291 593.509 536.28 593.218 535.723C592.927 535.165 585.573 535.214 583.616 536.243C582.694 536.745 582.006 537.59 581.702 538.594C581.397 539.598 581.5 540.681 581.988 541.61C582.476 542.538 583.311 543.238 584.311 543.558C585.311 543.879 586.398 543.793 587.335 543.32Z" fill="white"/>
<path d="M591.916 535.517C591.957 535.259 592.073 535.02 592.251 534.829C592.428 534.638 592.658 534.504 592.911 534.443C593.165 534.383 593.431 534.399 593.676 534.489C593.92 534.58 594.132 534.741 594.285 534.952C594.438 535.162 594.525 535.414 594.535 535.674C594.544 535.935 594.477 536.192 594.34 536.414C594.203 536.635 594.003 536.812 593.766 536.92C593.529 537.028 593.265 537.064 593.008 537.023C592.663 536.967 592.355 536.777 592.15 536.495C591.945 536.213 591.861 535.861 591.916 535.517V535.517Z" fill="#163560"/>
<path d="M608.342 563.631C606.167 566.3 603.818 577.503 604.582 578.124C605.346 578.746 615.853 574.164 618.028 571.496C619.073 570.211 619.563 568.564 619.392 566.918C619.22 565.272 618.401 563.762 617.115 562.719C615.828 561.676 614.179 561.186 612.531 561.357C610.883 561.528 609.37 562.346 608.326 563.631H608.342Z" fill="#A8D29F"/>
<path d="M565.294 607.256H564.777C559.376 581.778 549.058 564.35 548.917 564.112L549.35 563.853C549.495 564.079 559.893 581.613 565.294 607.256Z" fill="#A8D29F"/>
<path d="M543.233 562.234C544.349 563.203 549.127 564.37 549.406 564.051C549.685 563.732 547.866 559.17 546.75 558.197C546.211 557.755 545.52 557.54 544.825 557.598C544.129 557.656 543.484 557.982 543.026 558.508C542.568 559.034 542.333 559.717 542.372 560.413C542.41 561.109 542.719 561.762 543.233 562.234Z" fill="white"/>
<path d="M549.693 557.467C548.969 558.758 548.812 563.668 549.18 563.873C549.548 564.079 553.627 561.362 554.371 560.075C554.557 559.767 554.68 559.425 554.732 559.069C554.784 558.713 554.763 558.351 554.671 558.003C554.579 557.655 554.418 557.329 554.197 557.045C553.976 556.761 553.7 556.524 553.386 556.349C553.071 556.173 552.725 556.063 552.367 556.025C552.009 555.986 551.646 556.02 551.302 556.124C550.957 556.229 550.637 556.401 550.361 556.632C550.084 556.862 549.857 557.146 549.693 557.467V557.467Z" fill="white"/>
<path d="M555.596 561.883C554.132 561.685 549.495 563.332 549.438 563.752C549.382 564.172 553.412 566.982 554.876 567.188C555.225 567.235 555.58 567.213 555.92 567.123C556.26 567.034 556.579 566.878 556.86 566.665C557.14 566.452 557.375 566.186 557.552 565.882C557.729 565.579 557.845 565.243 557.892 564.895C557.939 564.546 557.917 564.192 557.827 563.852C557.738 563.513 557.582 563.194 557.368 562.914C557.155 562.634 556.889 562.399 556.585 562.223C556.281 562.046 555.944 561.93 555.596 561.883Z" fill="white"/>
<path d="M553.218 568.694C552.883 567.253 549.697 563.51 549.285 563.607C548.872 563.704 547.668 568.452 547.999 569.901C548.07 570.252 548.21 570.586 548.413 570.882C548.615 571.178 548.874 571.43 549.176 571.624C549.477 571.818 549.815 571.95 550.169 572.011C550.522 572.072 550.884 572.062 551.234 571.981C551.583 571.9 551.913 571.75 552.203 571.539C552.493 571.328 552.738 571.062 552.923 570.755C553.108 570.448 553.23 570.107 553.28 569.752C553.331 569.397 553.31 569.036 553.218 568.69V568.694Z" fill="white"/>
<path d="M545.941 569.324C547.154 568.472 549.418 564.112 549.176 563.769C548.933 563.425 544.058 564.1 542.849 564.951C542.558 565.153 542.309 565.41 542.118 565.707C541.927 566.005 541.796 566.337 541.735 566.686C541.673 567.034 541.681 567.391 541.758 567.736C541.836 568.081 541.98 568.408 542.185 568.697C542.389 568.985 542.649 569.231 542.949 569.419C543.249 569.607 543.583 569.734 543.932 569.792C544.282 569.851 544.639 569.839 544.984 569.759C545.329 569.678 545.654 569.53 545.941 569.324V569.324Z" fill="white"/>
<path d="M548.294 563.744C548.299 563.57 548.356 563.402 548.456 563.26C548.557 563.118 548.698 563.009 548.861 562.947C549.024 562.885 549.201 562.872 549.371 562.911C549.541 562.949 549.696 563.037 549.816 563.164C549.935 563.29 550.015 563.449 550.044 563.621C550.073 563.792 550.051 563.969 549.98 564.128C549.909 564.287 549.792 564.421 549.645 564.514C549.497 564.606 549.326 564.653 549.151 564.648C549.036 564.646 548.921 564.62 548.815 564.573C548.709 564.526 548.614 564.459 548.534 564.375C548.454 564.291 548.392 564.192 548.351 564.083C548.31 563.975 548.291 563.86 548.294 563.744Z" fill="#163560"/>
<path d="M561.664 580.959C560.451 582.921 559.885 590.563 560.451 590.906C561.017 591.249 567.583 587.273 568.791 585.331C569.34 584.389 569.498 583.271 569.231 582.214C568.965 581.158 568.296 580.247 567.367 579.677C566.438 579.106 565.323 578.921 564.258 579.16C563.194 579.4 562.266 580.045 561.672 580.959H561.664Z" fill="#A8D29F"/>
<path d="M647.702 603.889L648.382 603.78C651.054 569.235 661.618 544.435 661.767 544.108L661.149 543.841C660.999 544.184 650.358 569.134 647.702 603.889Z" fill="#A8D29F"/>
<path d="M668.931 540.632C667.629 542.105 661.529 544.475 661.108 544.104C660.688 543.732 662.285 537.394 663.59 535.92C663.9 535.57 664.276 535.284 664.696 535.079C665.117 534.874 665.574 534.754 666.041 534.725C666.508 534.696 666.976 534.759 667.418 534.911C667.861 535.063 668.269 535.3 668.62 535.61C668.97 535.919 669.257 536.294 669.462 536.714C669.667 537.134 669.788 537.59 669.817 538.056C669.846 538.523 669.782 538.99 669.63 539.432C669.478 539.874 669.241 540.281 668.931 540.632V540.632Z" fill="white"/>
<path d="M659.584 535.492C660.76 537.071 661.828 543.518 661.379 543.853C660.93 544.188 655.044 541.322 653.868 539.748C653.576 539.374 653.362 538.945 653.238 538.488C653.115 538.03 653.084 537.553 653.147 537.083C653.211 536.613 653.368 536.161 653.608 535.753C653.849 535.344 654.169 534.988 654.55 534.705C654.93 534.422 655.364 534.217 655.824 534.103C656.285 533.989 656.764 533.969 657.233 534.042C657.702 534.115 658.151 534.281 658.555 534.53C658.959 534.78 659.308 535.107 659.584 535.492V535.492Z" fill="white"/>
<path d="M652.57 542.352C654.466 541.835 660.87 543.199 661.015 543.74C661.161 544.281 656.342 548.702 654.442 549.219C653.989 549.346 653.515 549.383 653.048 549.327C652.581 549.271 652.129 549.123 651.72 548.892C651.31 548.66 650.951 548.35 650.662 547.979C650.373 547.608 650.161 547.184 650.037 546.731C649.913 546.277 649.881 545.804 649.941 545.338C650.002 544.872 650.154 544.423 650.39 544.016C650.626 543.609 650.939 543.253 651.314 542.968C651.688 542.683 652.115 542.475 652.57 542.356V542.352Z" fill="white"/>
<path d="M656.892 550.902C657.082 548.944 660.631 543.45 661.189 543.506C661.747 543.563 664.177 549.63 663.987 551.58C663.956 552.056 663.83 552.521 663.615 552.948C663.401 553.374 663.103 553.753 662.74 554.063C662.376 554.372 661.953 554.605 661.498 554.748C661.042 554.891 660.562 554.941 660.087 554.896C659.611 554.85 659.15 554.709 658.73 554.482C658.309 554.255 657.939 553.945 657.641 553.572C657.343 553.2 657.123 552.771 656.995 552.311C656.866 551.852 656.831 551.371 656.892 550.898V550.902Z" fill="white"/>
<path d="M666.623 550.478C664.88 549.566 661.124 544.213 661.367 543.716C661.609 543.219 668.175 543.264 669.917 544.176C670.346 544.385 670.728 544.678 671.041 545.038C671.354 545.397 671.591 545.815 671.74 546.268C671.888 546.721 671.944 547.198 671.904 547.673C671.864 548.147 671.729 548.609 671.507 549.031C671.286 549.452 670.981 549.825 670.613 550.127C670.244 550.429 669.818 550.655 669.361 550.79C668.904 550.925 668.424 550.967 667.95 550.913C667.476 550.86 667.018 550.712 666.602 550.478H666.623Z" fill="white"/>
<path d="M662.527 543.53C662.491 543.3 662.388 543.086 662.23 542.915C662.072 542.744 661.867 542.624 661.641 542.569C661.414 542.514 661.177 542.528 660.958 542.609C660.739 542.689 660.55 542.833 660.413 543.021C660.276 543.209 660.198 543.434 660.189 543.666C660.18 543.899 660.241 544.129 660.363 544.327C660.485 544.525 660.663 544.682 660.875 544.779C661.087 544.876 661.323 544.908 661.553 544.871C661.86 544.821 662.134 544.652 662.317 544.401C662.499 544.15 662.575 543.837 662.527 543.53V543.53Z" fill="#163560"/>
<path d="M646.126 577.818C648.062 580.195 650.168 590.175 649.473 590.736C648.778 591.298 639.439 587.208 637.498 584.83C636.568 583.688 636.131 582.223 636.282 580.758C636.433 579.294 637.161 577.949 638.305 577.02C639.449 576.091 640.916 575.654 642.382 575.805C643.849 575.957 645.195 576.683 646.126 577.826V577.818Z" fill="#A8D29F"/>
<path d="M537.957 609.925C537.957 609.925 541.794 599.832 555.745 599.218C569.697 598.605 579.27 606.808 590.78 603.013C602.29 599.218 621.343 590.652 639.37 596.36C657.397 602.069 660.429 609.925 660.429 609.925H537.957Z" fill="#A8D29F"/>
<path d="M383.486 605.932L382.767 605.819C379.937 569.081 368.69 542.715 368.532 542.36L369.187 542.073C369.345 542.452 380.66 568.972 383.486 605.932Z" fill="#A8D29F"/>
<path d="M360.907 538.662C362.294 540.228 368.783 542.751 369.227 542.356C369.672 541.96 367.978 535.218 366.591 533.651C366.266 533.264 365.867 532.945 365.417 532.714C364.966 532.482 364.474 532.344 363.969 532.305C363.464 532.267 362.956 532.331 362.476 532.491C361.996 532.652 361.553 532.908 361.174 533.242C360.794 533.577 360.485 533.984 360.266 534.44C360.046 534.896 359.92 535.391 359.895 535.896C359.871 536.401 359.947 536.906 360.121 537.381C360.295 537.856 360.562 538.291 360.907 538.662V538.662Z" fill="white"/>
<path d="M370.848 533.195C369.599 534.875 368.463 541.73 368.94 542.077C369.417 542.424 375.68 539.384 376.929 537.709C377.46 536.903 377.662 535.924 377.495 534.974C377.328 534.024 376.804 533.173 376.03 532.595C375.256 532.017 374.291 531.757 373.331 531.866C372.371 531.975 371.489 532.446 370.865 533.183L370.848 533.195Z" fill="white"/>
<path d="M378.311 540.49C376.29 539.941 369.486 541.391 369.328 541.968C369.171 542.545 374.301 547.245 376.318 547.794C376.799 547.924 377.3 547.959 377.794 547.896C378.287 547.834 378.764 547.674 379.196 547.428C379.628 547.181 380.007 546.852 380.312 546.459C380.617 546.066 380.841 545.617 380.972 545.137C381.102 544.658 381.137 544.157 381.075 543.664C381.012 543.171 380.852 542.695 380.605 542.264C380.358 541.832 380.029 541.453 379.635 541.149C379.241 540.845 378.792 540.621 378.311 540.49V540.49Z" fill="white"/>
<path d="M373.715 549.582C373.513 547.499 369.737 541.657 369.142 541.718C368.548 541.778 365.965 548.23 366.167 550.309C366.281 551.294 366.778 552.195 367.55 552.818C368.323 553.442 369.309 553.738 370.298 553.643C371.286 553.547 372.198 553.069 372.837 552.309C373.476 551.55 373.791 550.571 373.715 549.582V549.582Z" fill="white"/>
<path d="M363.386 549.134C365.241 548.161 369.231 542.469 368.956 541.94C368.682 541.411 361.716 541.459 359.864 542.432C359.424 542.663 359.033 542.978 358.714 543.36C358.396 543.742 358.155 544.182 358.007 544.657C357.859 545.131 357.806 545.63 357.851 546.125C357.896 546.62 358.038 547.101 358.269 547.541C358.501 547.981 358.816 548.372 359.199 548.69C359.581 549.008 360.022 549.248 360.497 549.396C360.972 549.544 361.472 549.597 361.967 549.552C362.463 549.507 362.945 549.365 363.386 549.134Z" fill="white"/>
<path d="M367.723 541.742C367.763 541.498 367.873 541.272 368.041 541.091C368.209 540.91 368.427 540.783 368.668 540.726C368.908 540.669 369.16 540.684 369.392 540.77C369.623 540.856 369.824 541.008 369.969 541.208C370.114 541.408 370.196 541.647 370.205 541.893C370.214 542.14 370.15 542.384 370.02 542.594C369.891 542.804 369.702 542.971 369.477 543.074C369.252 543.176 369.002 543.21 368.758 543.171C368.431 543.118 368.139 542.938 367.945 542.67C367.751 542.402 367.671 542.068 367.723 541.742V541.742Z" fill="#F78248"/>
<path d="M380.086 552.545C378.028 555.077 375.805 565.686 376.529 566.271C377.252 566.857 387.202 562.521 389.259 559.994C389.773 559.395 390.161 558.7 390.401 557.949C390.641 557.198 390.728 556.407 390.657 555.622C390.586 554.837 390.359 554.075 389.988 553.379C389.618 552.683 389.111 552.068 388.499 551.571C387.887 551.073 387.181 550.703 386.424 550.483C385.666 550.262 384.872 550.195 384.088 550.285C383.304 550.376 382.546 550.622 381.859 551.009C381.171 551.397 380.569 551.918 380.086 552.541V552.545Z" fill="#A8D29F"/>
<path d="M375.021 583.026C377.159 584.067 381.893 590.401 381.594 591.011C381.295 591.621 373.383 591.818 371.245 590.761C370.242 590.246 369.481 589.36 369.125 588.292C368.769 587.224 368.846 586.059 369.34 585.047C369.834 584.035 370.706 583.257 371.767 582.879C372.829 582.501 373.997 582.554 375.021 583.026Z" fill="#A8D29F"/>
<path d="M404.104 605.932L404.913 605.799C408.176 563.623 421.084 533.353 421.254 532.941L420.502 532.618C420.34 533.034 407.347 563.498 404.104 605.932Z" fill="#A8D29F"/>
<path d="M430.027 528.698C428.434 530.494 420.987 533.389 420.474 532.937C419.96 532.485 421.909 524.746 423.502 522.945C423.874 522.498 424.333 522.129 424.85 521.862C425.368 521.595 425.934 521.434 426.515 521.39C427.096 521.345 427.68 521.417 428.233 521.602C428.785 521.787 429.295 522.08 429.732 522.465C430.168 522.85 430.523 523.319 430.775 523.844C431.027 524.368 431.172 524.938 431.199 525.519C431.227 526.1 431.137 526.681 430.936 527.227C430.734 527.773 430.425 528.273 430.027 528.698Z" fill="white"/>
<path d="M418.61 522.424C420.049 524.35 421.351 532.222 420.801 532.63C420.251 533.038 413.067 529.542 411.632 527.616C411.291 527.158 411.043 526.638 410.903 526.085C410.763 525.532 410.733 524.957 410.816 524.392C410.898 523.828 411.091 523.285 411.384 522.795C411.677 522.305 412.063 521.877 412.521 521.536C412.98 521.195 413.501 520.948 414.054 520.808C414.608 520.668 415.185 520.639 415.75 520.721C416.315 520.803 416.859 520.996 417.35 521.289C417.84 521.581 418.269 521.967 418.61 522.424Z" fill="white"/>
<path d="M410.043 530.797C412.364 530.163 420.178 531.831 420.36 532.493C420.542 533.155 414.652 538.548 412.331 539.182C411.218 539.485 410.029 539.334 409.028 538.762C408.026 538.19 407.292 537.244 406.989 536.132C406.685 535.02 406.837 533.834 407.41 532.833C407.982 531.833 408.93 531.1 410.043 530.797V530.797Z" fill="white"/>
<path d="M415.323 541.241C415.558 538.855 419.887 532.146 420.579 532.214C421.27 532.283 424.217 539.691 423.995 542.081C423.852 543.203 423.278 544.226 422.393 544.931C421.508 545.637 420.382 545.971 419.255 545.862C418.128 545.752 417.087 545.209 416.355 544.346C415.622 543.484 415.255 542.37 415.331 541.241H415.323Z" fill="white"/>
<path d="M427.181 540.721C425.054 539.606 420.47 533.05 420.789 532.461C421.108 531.871 429.097 531.912 431.228 533.026C432.249 533.561 433.016 534.48 433.36 535.58C433.703 536.68 433.595 537.871 433.059 538.892C432.523 539.912 431.603 540.678 430.501 541.021C429.4 541.364 428.207 541.256 427.185 540.721H427.181Z" fill="white"/>
<path d="M422.204 532.234C422.16 531.955 422.035 531.695 421.844 531.486C421.652 531.278 421.403 531.131 421.128 531.063C420.853 530.996 420.564 531.011 420.298 531.107C420.032 531.203 419.8 531.376 419.632 531.603C419.463 531.831 419.366 532.103 419.352 532.385C419.339 532.668 419.409 532.948 419.554 533.191C419.7 533.433 419.914 533.628 420.169 533.749C420.425 533.871 420.711 533.914 420.991 533.874C421.179 533.846 421.36 533.782 421.523 533.685C421.685 533.588 421.827 533.459 421.94 533.307C422.053 533.154 422.134 532.981 422.18 532.797C422.225 532.613 422.233 532.422 422.204 532.234V532.234Z" fill="#F78248"/>
<path d="M404.339 562.808C406.704 565.71 409.259 577.894 408.426 578.553C407.593 579.211 396.173 574.249 393.808 571.342C392.78 569.94 392.331 568.198 392.553 566.476C392.774 564.753 393.65 563.181 394.998 562.084C396.347 560.987 398.065 560.448 399.8 560.58C401.534 560.712 403.152 561.503 404.319 562.791L404.339 562.808Z" fill="#A8D29F"/>
<path d="M413.823 579.63C411.365 580.841 405.936 588.108 406.275 588.799C406.615 589.489 415.703 589.707 418.157 588.512C419.304 587.919 420.174 586.902 420.58 585.677C420.986 584.453 420.897 583.119 420.331 581.959C419.765 580.8 418.768 579.907 417.552 579.472C416.336 579.037 414.998 579.094 413.823 579.63V579.63Z" fill="#A8D29F"/>
<path d="M363.47 609.372C363.47 609.372 372.288 599.78 391.256 603.252C410.225 606.723 420.647 596.55 424.12 609.372H363.47Z" fill="#A8D29F"/>
<path d="M1059.78 609.097H2.39328C1.71899 609.097 1.17236 609.643 1.17236 610.317V610.785C1.17236 611.458 1.71899 612.004 2.39328 612.004H1059.78C1060.45 612.004 1061 611.458 1061 610.785V610.317C1061 609.643 1060.45 609.097 1059.78 609.097Z" fill="#2E3552"/>
</g>
<defs>
<clipPath id="clip0">
<rect width="1061" height="612" fill="white"/>
</clipPath>
</defs>
</svg>
